:SAMPLES-PER-SECOND 30
:FULLY-SPECIFIED
:DEGREES
16
root  73.0931 40.4946 -25.6071 172.642 -84.6504 -171.603
RightUpLeg  -0.641236 -7.31115 -4.60295
RightLeg  2.50796 -3.14249 3.41442
RightFoot  -1.07375 -0.0025195 -0.0668092
RightToes  -1.74624e-010 0 -3.6325e-017
Spine  3.98315 0.857676 1.52346
Spine1  1.45451 1.09825 -1.04989
HEad  -5.30536 3.15488 0.683606
LeftShoulder1  0.885347 -0.493001 -15.1474
LeftArm  -18.573 10.8386 -2.62521
LeftForeArm  7.74664 -1.63217 -1.03976
LeftHand  -0.244104 0.0205437 5.32207
RightShoulder  0.604591 -0.103167 10.5459
RightArm  -20.158 -3.86401 2.61377
RightForeArm  5.38907 1.84505 2.7244
RightHand  -1.11309 5.09987 -12.568
LeftUpLeg  1.06855 6.0812 3.71009
LeftLeg  2.36245 14.7639 -4.27639
LeftFoot  -3.79311 -0.00381665 0.421114
LeftToes  1.28235e-010 -1.10989e-010 2.53219e-011
17
root  73.0434 40.4996 -25.5785 172.79 -84.2538 -171.681
RightUpLeg  -0.628567 -7.25659 -4.57324
RightLeg  2.35014 -2.84134 3.39177
RightFoot  -0.97924 -0.00513715 -0.0261645
RightToes  -1.74624e-010 0 -3.6325e-017
Spine  3.79742 0.869646 1.52234
Spine1  1.7217 1.05732 -0.799185
HEad  -5.45943 3.57334 0.205857
LeftShoulder1  0.974891 -0.682329 -16.3958
LeftArm  -19.5112 11.7747 -3.03549
LeftForeArm  9.31542 -3.43679 -0.783609
LeftHand  -0.244104 0.0205437 5.32207
RightShoulder  0.682461 0.238693 11.0538
RightArm  -20.8232 -4.2828 3.58688
RightForeArm  3.33187 2.45605 2.727
RightHand  -1.19672 4.94353 -13.6749
LeftUpLeg  1.18721 6.13911 3.73316
LeftLeg  2.2133 15.096 -4.35865
LeftFoot  -3.80409 -0.00558008 0.468932
LeftToes  1.28235e-010 -1.10989e-010 2.53219e-011
18
root  72.9938 40.5017 -25.5532 172.896 -84.0295 -171.675
RightUpLeg  -0.681218 -7.2349 -4.56692
RightLeg  2.28657 -2.67655 3.38106
RightFoot  -0.926431 -0.00651095 -0.00483379
RightToes  -1.74624e-010 0 -3.6325e-017
Spine  3.07181 0.694277 1.54577
Spine1  2.88949 0.835449 -0.61267
HEad  -5.57357 3.77388 -0.267272
LeftShoulder1  1.08506 -0.83629 -18.2425
LeftArm  -20.9281 12.7857 -3.77882
LeftForeArm  11.754 -6.42623 -0.566473
LeftHand  -0.244104 0.0205437 5.32207
RightShoulder  0.823651 0.803934 12.0324
RightArm  -21.7876 -4.61005 5.2042
RightForeArm  -0.513853 3.16739 2.82181
RightHand  -1.35737 4.93527 -15.4543
LeftUpLeg  1.20761 6.12629 3.70936
LeftLeg  2.11595 15.338 -4.37608
LeftFoot  -3.83345 -0.00126258 0.422173
LeftToes  1.28235e-010 -1.10989e-010 2.53219e-011
19
root  72.9426 40.5001 -25.5218 172.987 -83.9052 -171.669
RightUpLeg  -0.72893 -7.24982 -4.60319
RightLeg  2.28831 -2.54505 3.3866
RightFoot  -0.928608 -0.00947265 0.0339271
RightToes  -1.74624e-010 0 -3.6325e-017
Spine  2.3611 0.521727 1.6174
Spine1  4.15519 0.628991 -0.503985
HEad  -5.48853 3.61719 -0.626463
LeftShoulder1  1.31891 -1.33222 -20.6689
LeftArm  -22.4525 14.0245 -4.9222
LeftForeArm  15.093 -10.3472 -0.625129
LeftHand  -0.244104 0.0205437 5.32207
RightShoulder  1.05257 1.59253 13.7232
RightArm  -22.4881 -5.21307 7.01867
RightForeArm  -4.27286 4.09114 3.03217
RightHand  -1.54281 5.27793 -16.972
LeftUpLeg  1.23925 6.07263 3.64927
LeftLeg  2.02245 15.5348 -4.36765
LeftFoot  -3.87804 0.00541225 0.337734
LeftToes  1.28235e-010 -1.10989e-010 2.53219e-011
20
root  72.8865 40.4985 -25.4798 173.004 -83.7286 -171.612
RightUpLeg  -0.720293 -7.28225 -4.66012
RightLeg  2.23133 -2.32618 3.42178
RightFoot  -0.947435 -0.0154941 0.0980358
RightToes  -1.74624e-010 0 -3.6325e-017
Spine  2.27055 0.540561 1.85177
Spine1  4.50868 0.673258 -0.634748
HEad  -5.43835 3.21437 -0.96333
LeftShoulder1  1.78419 -2.44293 -23.5878
LeftArm  -23.9759 15.5766 -6.29099
LeftForeArm  19.1963 -14.862 -1.31742
LeftHand  -0.244104 0.0205437 5.32207
RightShoulder  1.37642 2.4851 16.2793
RightArm  -22.465 -6.45053 8.68287
RightForeArm  -6.63578 5.36528 3.3629
RightHand  -1.62126 5.39128 -17.6253
LeftUpLeg  1.3625 6.07005 3.6189
LeftLeg  1.84815 15.7296 -4.42928
LeftFoot  -3.94508 0.0105722 0.274822
LeftToes  1.28235e-010 -1.10989e-010 2.53219e-011
21
root  72.827 40.4978 -25.4434 172.876 -83.4113 -171.36
RightUpLeg  -0.741204 -7.28618 -4.65932
RightLeg  2.09588 -2.01037 3.4759
RightFoot  -0.926419 -0.0195752 0.12888
RightToes  -1.74624e-010 0 -3.6325e-017
Spine  2.53921 0.709219 2.31709
Spine1  4.2454 0.951382 -1.10714
HEad  -5.34175 2.76941 -1.07268
LeftShoulder1  2.46283 -3.90935 -26.9953
LeftArm  -24.7493 16.9255 -7.71649
LeftForeArm  22.5988 -19.1928 -2.56642
LeftHand  -0.244104 0.0205437 5.32207
RightShoulder  1.79439 3.41054 19.5012
RightArm  -21.7619 -8.09143 10.6661
RightForeArm  -6.95418 6.72407 3.73724
RightHand  -1.6 5.30245 -17.5397
LeftUpLeg  1.49244 6.14399 3.67071
LeftLeg  1.60454 15.9442 -4.5602
LeftFoot  -4.02674 0.0191017 0.156554
LeftToes  1.28235e-010 -1.10989e-010 2.53219e-011
22
root  72.7586 40.4973 -25.4259 172.629 -83.0083 -170.967
RightUpLeg  -0.76193 -7.2711 -4.59971
RightLeg  1.92858 -1.63626 3.54275
RightFoot  -0.873039 -0.0212267 0.119821
RightToes  -1.74624e-010 0 -3.6325e-017
Spine  2.81782 0.917778 2.9793
Spine1  3.95673 1.338 -1.87224
HEad  -5.30604 2.21983 -0.947132
LeftShoulder1  3.23703 -5.3078 -30.6266
LeftArm  -23.3399 17.3813 -9.57541
LeftForeArm  23.2539 -22.0691 -3.47415
LeftHand  -0.244104 0.0205437 5.32207
RightShoulder  2.29366 4.29445 23.1935
RightArm  -20.5103 -9.76914 13.4415
RightForeArm  -5.10911 7.90809 4.12181
RightHand  -1.52817 5.33533 -16.7284
LeftUpLeg  1.62913 6.24754 3.78487
LeftLeg  1.34248 16.1728 -4.6929
LeftFoot  -4.091 0.0312253 -0.0215307
LeftToes  1.28235e-010 -1.10989e-010 2.53219e-011
